<?xml version="1.0" encoding="UTF-8"?>
<svg xmlns="http://www.w3.org/2000/svg" xmlns:xlink="http://www.w3.org/1999/xlink" width="16px" height="16px" viewBox="0 0 16 16" version="1.1">
<g id="surface1">
<path style=" stroke:none;fill-rule:evenodd;fill:rgb(16.862745%,10.588235%,95.686275%);fill-opacity:1;" d="M 0 8 L 0 16 L 16 16 L 16 0 L 0 0 L 0 8 M 5.851562 3.464844 C 6.304688 3.53125 6.691406 3.722656 7.007812 4.03125 C 8.226562 5.21875 7.574219 7.253906 5.890625 7.527344 C 5.734375 7.554688 3.6875 7.5625 3.660156 7.539062 C 3.652344 7.53125 3.648438 7.382812 3.652344 7.207031 L 3.65625 6.886719 L 4.6875 6.878906 C 5.800781 6.867188 5.816406 6.867188 6.054688 6.777344 C 7.125 6.375 7.257812 4.910156 6.277344 4.332031 C 5.96875 4.148438 5.828125 4.125 5 4.132812 L 4.359375 4.136719 L 4.355469 4.796875 C 4.351562 5.253906 4.347656 5.46875 4.332031 5.484375 C 4.308594 5.511719 3.695312 5.515625 3.667969 5.484375 C 3.640625 5.457031 3.640625 3.488281 3.667969 3.460938 C 3.699219 3.425781 5.628906 3.433594 5.851562 3.464844 M 11.222656 3.464844 C 12.664062 3.742188 12.820312 5.710938 11.441406 6.179688 C 11.265625 6.242188 11.195312 6.246094 10.734375 6.246094 L 10.28125 6.246094 L 10.28125 5.574219 L 10.710938 5.566406 C 11.179688 5.554688 11.203125 5.550781 11.363281 5.460938 C 11.839844 5.183594 11.816406 4.460938 11.320312 4.210938 C 11.152344 4.128906 11.117188 4.125 10.0625 4.132812 L 9.097656 4.136719 L 9.09375 5.84375 L 9.085938 7.550781 L 8.398438 7.550781 L 8.398438 5.507812 C 8.398438 4.382812 8.40625 3.457031 8.410156 3.449219 C 8.433594 3.425781 11.089844 3.4375 11.222656 3.464844 M 5.878906 8.789062 C 6.003906 9.046875 6.152344 9.359375 6.214844 9.488281 C 6.273438 9.617188 6.351562 9.777344 6.382812 9.847656 C 6.417969 9.917969 6.488281 10.070312 6.542969 10.183594 C 6.597656 10.296875 6.671875 10.449219 6.703125 10.519531 C 6.738281 10.589844 6.808594 10.742188 6.863281 10.855469 C 6.917969 10.96875 6.988281 11.113281 7.015625 11.175781 C 7.042969 11.238281 7.117188 11.390625 7.175781 11.511719 C 7.234375 11.636719 7.308594 11.785156 7.335938 11.847656 C 7.363281 11.910156 7.449219 12.082031 7.519531 12.230469 C 7.6875 12.582031 7.710938 12.550781 7.304688 12.554688 C 6.878906 12.5625 6.914062 12.574219 6.832031 12.394531 C 6.792969 12.316406 6.730469 12.179688 6.691406 12.097656 C 6.652344 12.011719 6.601562 11.902344 6.574219 11.847656 C 6.550781 11.796875 6.5 11.683594 6.460938 11.601562 C 6.394531 11.460938 6.359375 11.386719 6.214844 11.078125 C 6.1875 11.019531 6.132812 10.902344 6.097656 10.824219 C 6.058594 10.746094 6.007812 10.636719 5.984375 10.585938 C 5.960938 10.53125 5.902344 10.40625 5.851562 10.304688 C 5.804688 10.203125 5.742188 10.066406 5.710938 10.003906 C 5.652344 9.878906 5.621094 9.851562 5.601562 9.910156 C 5.589844 9.941406 5.550781 10.023438 5.378906 10.382812 C 5.140625 10.890625 4.992188 11.210938 4.859375 11.496094 C 4.808594 11.609375 4.71875 11.796875 4.664062 11.910156 C 4.609375 12.027344 4.546875 12.160156 4.527344 12.207031 C 4.503906 12.253906 4.460938 12.351562 4.425781 12.421875 L 4.359375 12.550781 L 3.996094 12.554688 C 3.707031 12.558594 3.628906 12.554688 3.625 12.539062 C 3.617188 12.527344 3.664062 12.417969 3.722656 12.296875 C 3.78125 12.171875 3.855469 12.011719 3.890625 11.9375 C 3.925781 11.859375 4 11.710938 4.050781 11.601562 C 4.152344 11.390625 4.261719 11.160156 4.375 10.921875 C 4.414062 10.839844 4.484375 10.691406 4.535156 10.585938 C 4.585938 10.476562 4.660156 10.328125 4.695312 10.246094 C 4.734375 10.167969 4.800781 10.023438 4.847656 9.929688 C 4.894531 9.832031 4.960938 9.6875 5 9.609375 C 5.132812 9.328125 5.34375 8.882812 5.492188 8.574219 C 5.542969 8.464844 5.59375 8.359375 5.601562 8.339844 C 5.628906 8.273438 5.660156 8.324219 5.878906 8.789062 M 8.863281 8.761719 C 8.972656 8.875 9.152344 9.058594 9.257812 9.167969 C 9.363281 9.277344 9.621094 9.546875 9.835938 9.769531 C 10.046875 9.988281 10.253906 10.207031 10.296875 10.253906 C 10.394531 10.363281 10.378906 10.367188 10.609375 10.132812 C 10.714844 10.019531 10.890625 9.839844 10.992188 9.734375 C 11.09375 9.628906 11.347656 9.363281 11.558594 9.144531 C 12.429688 8.238281 12.367188 8.300781 12.386719 8.3125 C 12.394531 8.316406 12.398438 9.273438 12.398438 10.433594 L 12.398438 12.542969 L 12.363281 12.550781 C 12.34375 12.558594 12.191406 12.558594 12.023438 12.554688 L 11.71875 12.550781 L 11.714844 11.269531 C 11.714844 10.390625 11.707031 9.984375 11.695312 9.984375 C 11.675781 9.984375 11.640625 10.015625 11.128906 10.558594 C 11.046875 10.644531 10.863281 10.839844 10.710938 10.996094 C 10.5625 11.15625 10.4375 11.289062 10.433594 11.296875 C 10.421875 11.335938 10.363281 11.304688 10.28125 11.210938 C 10.230469 11.15625 10.125 11.046875 10.050781 10.96875 C 9.84375 10.753906 9.382812 10.265625 9.257812 10.128906 C 9.136719 10 9.121094 9.984375 9.101562 9.984375 C 9.09375 9.984375 9.089844 10.554688 9.089844 11.253906 C 9.089844 12.3125 9.085938 12.527344 9.066406 12.542969 C 9.050781 12.554688 8.945312 12.558594 8.726562 12.554688 L 8.40625 12.550781 L 8.402344 10.449219 C 8.402344 9.289062 8.402344 8.332031 8.410156 8.320312 C 8.414062 8.300781 8.453125 8.332031 8.539062 8.425781 C 8.605469 8.496094 8.75 8.644531 8.863281 8.761719 "/>
<path style=" stroke:none;fill-rule:evenodd;fill:rgb(96.862745%,96.862745%,98.431373%);fill-opacity:1;" d="M 3.667969 3.460938 C 3.640625 3.488281 3.640625 5.457031 3.667969 5.484375 C 3.695312 5.515625 4.308594 5.511719 4.332031 5.484375 C 4.347656 5.46875 4.351562 5.253906 4.355469 4.796875 L 4.359375 4.136719 L 5 4.132812 C 5.828125 4.125 5.96875 4.148438 6.277344 4.332031 C 7.257812 4.910156 7.125 6.375 6.054688 6.777344 C 5.816406 6.867188 5.800781 6.867188 4.6875 6.878906 L 3.65625 6.886719 L 3.652344 7.207031 C 3.648438 7.382812 3.652344 7.53125 3.660156 7.539062 C 3.6875 7.5625 5.734375 7.554688 5.890625 7.527344 C 7.574219 7.253906 8.226562 5.21875 7.007812 4.03125 C 6.691406 3.722656 6.304688 3.53125 5.851562 3.464844 C 5.628906 3.433594 3.699219 3.425781 3.667969 3.460938 M 8.410156 3.449219 C 8.40625 3.457031 8.398438 4.382812 8.398438 5.507812 L 8.398438 7.550781 L 9.085938 7.550781 L 9.09375 5.84375 L 9.097656 4.136719 L 10.0625 4.132812 C 11.117188 4.125 11.152344 4.128906 11.320312 4.210938 C 11.816406 4.460938 11.839844 5.183594 11.363281 5.460938 C 11.203125 5.550781 11.179688 5.554688 10.710938 5.566406 L 10.28125 5.574219 L 10.28125 6.246094 L 10.734375 6.246094 C 11.050781 6.246094 11.21875 6.242188 11.28125 6.226562 C 12.796875 5.871094 12.753906 3.757812 11.222656 3.464844 C 11.089844 3.4375 8.433594 3.425781 8.410156 3.449219 M 5.601562 8.339844 C 5.59375 8.359375 5.542969 8.464844 5.492188 8.574219 C 5.34375 8.882812 5.132812 9.328125 5 9.609375 C 4.960938 9.6875 4.894531 9.832031 4.847656 9.929688 C 4.800781 10.023438 4.734375 10.167969 4.695312 10.246094 C 4.660156 10.328125 4.585938 10.476562 4.535156 10.585938 C 4.484375 10.691406 4.414062 10.839844 4.375 10.921875 C 4.261719 11.160156 4.152344 11.390625 4.050781 11.601562 C 4 11.710938 3.925781 11.859375 3.890625 11.9375 C 3.855469 12.011719 3.78125 12.171875 3.722656 12.296875 C 3.664062 12.417969 3.617188 12.527344 3.625 12.539062 C 3.628906 12.554688 3.707031 12.558594 3.996094 12.554688 L 4.359375 12.550781 L 4.425781 12.421875 C 4.460938 12.351562 4.503906 12.253906 4.527344 12.207031 C 4.546875 12.160156 4.609375 12.027344 4.664062 11.910156 C 4.71875 11.796875 4.808594 11.609375 4.859375 11.496094 C 4.992188 11.210938 5.140625 10.890625 5.378906 10.382812 C 5.550781 10.023438 5.589844 9.941406 5.601562 9.910156 C 5.621094 9.851562 5.652344 9.878906 5.710938 10.003906 C 5.742188 10.066406 5.804688 10.203125 5.851562 10.304688 C 5.902344 10.40625 5.960938 10.53125 5.984375 10.585938 C 6.007812 10.636719 6.058594 10.746094 6.097656 10.824219 C 6.132812 10.902344 6.1875 11.019531 6.214844 11.078125 C 6.359375 11.386719 6.394531 11.460938 6.460938 11.601562 C 6.5 11.683594 6.550781 11.796875 6.574219 11.847656 C 6.601562 11.902344 6.652344 12.011719 6.691406 12.097656 C 6.730469 12.179688 6.792969 12.316406 6.832031 12.394531 C 6.914062 12.574219 6.878906 12.5625 7.304688 12.554688 C 7.710938 12.550781 7.6875 12.582031 7.519531 12.230469 C 7.449219 12.082031 7.363281 11.910156 7.335938 11.847656 C 7.308594 11.785156 7.234375 11.636719 7.175781 11.511719 C 7.117188 11.390625 7.042969 11.238281 7.015625 11.175781 C 6.988281 11.113281 6.917969 10.96875 6.863281 10.855469 C 6.808594 10.742188 6.738281 10.589844 6.703125 10.519531 C 6.671875 10.449219 6.597656 10.296875 6.542969 10.183594 C 6.488281 10.070312 6.417969 9.917969 6.382812 9.847656 C 6.351562 9.777344 6.273438 9.617188 6.214844 9.488281 C 6.152344 9.359375 6.003906 9.046875 5.878906 8.789062 C 5.660156 8.324219 5.628906 8.273438 5.601562 8.339844 M 8.410156 8.320312 C 8.402344 8.332031 8.402344 9.289062 8.402344 10.449219 L 8.40625 12.550781 L 8.726562 12.554688 C 8.945312 12.558594 9.050781 12.554688 9.066406 12.542969 C 9.085938 12.527344 9.089844 12.3125 9.089844 11.253906 C 9.089844 10.554688 9.09375 9.984375 9.101562 9.984375 C 9.121094 9.984375 9.136719 10 9.257812 10.128906 C 9.382812 10.265625 9.84375 10.753906 10.050781 10.96875 C 10.125 11.046875 10.230469 11.15625 10.28125 11.210938 C 10.363281 11.304688 10.421875 11.335938 10.433594 11.296875 C 10.4375 11.289062 10.5625 11.15625 10.710938 10.996094 C 10.863281 10.839844 11.046875 10.644531 11.128906 10.558594 C 11.640625 10.015625 11.675781 9.984375 11.695312 9.984375 C 11.707031 9.984375 11.714844 10.390625 11.714844 11.269531 L 11.71875 12.550781 L 12.023438 12.554688 C 12.191406 12.558594 12.34375 12.558594 12.363281 12.550781 L 12.398438 12.542969 L 12.398438 10.433594 C 12.398438 9.273438 12.394531 8.316406 12.386719 8.3125 C 12.367188 8.300781 12.429688 8.238281 11.558594 9.144531 C 11.347656 9.363281 11.09375 9.628906 10.992188 9.734375 C 10.890625 9.839844 10.714844 10.019531 10.609375 10.132812 C 10.378906 10.367188 10.394531 10.363281 10.296875 10.253906 C 10.253906 10.207031 10.046875 9.988281 9.835938 9.769531 C 9.621094 9.546875 9.363281 9.277344 9.257812 9.167969 C 9.152344 9.058594 8.972656 8.875 8.863281 8.761719 C 8.75 8.644531 8.605469 8.496094 8.539062 8.425781 C 8.453125 8.332031 8.414062 8.300781 8.410156 8.320312 "/>
</g>
</svg>
